<?xml version="1.0" encoding="utf-8"?>
<!DOCTYPE svg PUBLIC "-//W3C//DTD SVG 1.1//EN" "http://www.w3.org/Graphics/SVG/1.1/DTD/svg11.dtd">
<svg version="1.1" baseProfile="full" 
	xmlns="http://www.w3.org/2000/svg"
	xmlns:xlink="http://www.w3.org/1999/xlink"
	xmlns:ev="http://www.w3.org/2001/xml-events"
	width="18px" height="17px">
<path fill="rgb(255,255,255)" fill-rule="evenodd" d="M17.8671 8.83171 C17.8671 10.1395 16.5678 10.1659 16.5678 10.1659 C16.5678 10.1659 5.12202 10.1774 5.12202 10.1774 C5.12202 10.1774 5.394 11.5234 5.394 11.5234 C5.394 11.5234 15.7302 11.5234 15.7302 11.5234 C16.103 11.5234 16.5314 11.3194 16.5314 12.5359 C16.5314 13.5838 16.103 13.506 15.7302 13.506 C15.7302 13.506 4.29688 13.506 4.29688 13.506 C3.92414 13.506 3.62231 13.204 3.62231 12.8311 C3.62231 12.5337 1.89541 2.03096 1.89541 2.03096 C1.89541 2.03096 0.780327 2.03325 0.780327 2.03325 C0.780327 -0.455841 2.65206 0.0484619 2.65206 0.0484619 C4.0444 0.0484619 4.01722 1.38895 4.01722 1.38895 C4.01722 1.38895 4.30278 2.75575 4.30278 2.75575 C4.30278 2.75575 16.5818 2.7382 16.5818 2.7382 C17.8052 2.7382 17.8732 4.04235 17.8732 4.04235 C17.8732 4.04235 17.8671 8.83171 17.8671 8.83171 Z M15.8565 5.44855 C15.8565 5.07566 15.5543 4.77344 15.1816 4.77344 C15.1816 4.77344 5.41518 4.77344 5.41518 4.77344 C5.04236 4.77344 4.74007 5.07566 4.74007 5.44855 C4.74007 5.44855 4.99327 7.47329 4.99327 7.47329 C4.99327 7.84618 5.29538 8.1484 5.6683 8.1484 C5.6683 8.1484 15.1816 8.1484 15.1816 8.1484 C15.5543 8.1484 15.8565 7.84618 15.8565 7.47329 C15.8565 7.47329 15.8565 5.44855 15.8565 5.44855 Z M6.3646 14.1812 C7.1217 14.1812 7.73574 14.7529 7.73574 15.5099 C7.73574 16.2674 7.1217 16.881 6.3646 16.881 C5.60723 16.881 5.0352 16.2674 5.0352 15.5099 C5.0352 14.7529 5.60723 14.1812 6.3646 14.1812 Z M13.8315 14.181 C14.5887 14.181 15.2024 14.7738 15.2024 15.531 C15.2024 16.2885 14.5887 16.9024 13.8315 16.9024 C13.0746 16.9024 12.4607 16.2885 12.4607 15.531 C12.4607 14.7738 13.0746 14.181 13.8315 14.181 Z"/>
</svg>